<svg height="512pt" viewBox="0 -70 512 512" width="512pt" xmlns="http://www.w3.org/2000/svg"><path d="m146.71875 215.363281c-15.359375 0-29.855469-6.527343-42.667969-17.050781v75.746094c5.960938 16.328125 22.3125 28.058594 41.5625 28.058594 19.257813 0 35.617188-11.742188 41.570313-28.085938h.03125v-73.976562c-12.269532 9.496093-26 15.308593-40.496094 15.308593zm0 0" fill="#ffe5c2"/><path d="m118.226562 215.363281c4.835938 0 9.585938-.660156 14.226563-1.875-10.078125-2.648437-19.632813-7.976562-28.402344-15.175781v15.199219c4.625 1.207031 9.355469 1.851562 14.175781 1.851562zm0 0" fill="#ffd0a4"/><path d="m158.71875 214.023438v60.007812h-.027344c-4.414062 12.113281-14.539062 21.691406-27.324218 25.84375 4.46875 1.449219 9.257812 2.246094 14.246093 2.246094 19.257813 0 35.617188-11.746094 41.570313-28.089844h.03125v-73.976562c-8.828125 6.832031-18.414063 11.742187-28.496094 13.96875zm0 0" fill="#ffd0a4"/><path d="m268.210938 307.265625c-5.574219-31.089844-33.988282-53.839844-67.25-53.839844h-13.777344c-5.953125 16.34375-22.3125 28.089844-41.570313 28.089844-19.261719 0-35.621093-11.746094-41.574219-28.089844h-13.777343c-33.261719 0-61.671875 22.75-67.246094 53.839844l-23.015625 64.3125h291.222656zm0 0" fill="#ffe177"/><path d="m268.210938 307.265625c-5.574219-31.089844-33.988282-53.839844-67.25-53.839844h-13.777344c-1.390625 3.820313-3.359375 7.386719-5.789063 10.609375 15.390625 9.585938 26.554688 24.964844 29.828125 43.230469l23.015625 64.3125h56.984375zm0 0" fill="#ffcf5c"/><path d="m160.011719 310.359375h.019531v-16.855469c0-6.621094-5.367188-11.988281-11.988281-11.988281h-4.863281c-6.621094 0-11.988282 5.367187-11.988282 11.988281v16.855469h-.015625l-16.023437 61.21875h60.917968zm0 0" fill="#8a7e88"/><path d="m160.011719 310.359375h.019531v-16.855469c0-6.621094-5.367188-11.988281-11.988281-11.988281h-4.863281c-1.460938 0-2.855469.273437-4.148438.753906 4.574219 1.6875 7.839844 6.074219 7.839844 11.234375v16.855469h-.015625l16.054687 61.21875h13.160156zm0 0" fill="#635562"/><path d="m63.429688 160.597656c-3.40625-4.09375-19.609376-43.046875-18.976563-62.519531 1.453125-44.703125 11.742187-51.09375 33.550781-65.421875 21.808594-14.324219 29.921875-29.4375 82.027344-32.53125 37.382812-2.21875 80.589844 24.953125 88.265625 93.929688 1.988281 17.898437-10.078125 47.667968-19.480469 69.429687zm0 0" fill="#8a7e88"/><path d="m228.816406 163.484375c9.402344-21.761719 21.46875-51.53125 19.480469-69.429687-7.675781-68.976563-50.882813-96.148438-88.265625-93.929688-4.511719.269531-8.6875.628906-12.578125 1.066406 32.402344 5.925782 64.480469 34.351563 70.992187 92.863282.25 2.253906.277344 4.699218.113282 7.292968zm0 0" fill="#635562"/><path d="m86.671875 87.195312c-2.609375-.5-5.277344-1.042968-8.050781-1.65625-16.789063-3.710937-27.441406 2.644532-34.167969 12.992188-.378906 19.609375 15.59375 58.003906 18.976563 62.066406zm0 0" fill="#635562"/><path d="m209.675781 95.410156c-25.898437-7.503906-48.722656 1.726563-101.203125-9.871094-52.21875-11.539062-45.066406 74.359376-45.042968 75.042969 15.847656 39.425781 47.199218 75.386719 83.289062 75.386719 35.195312 0 65.886719-34.203125 82.082031-72.464844-.957031 1.785156 6.648438-60.625-19.125-68.09375zm0 0" fill="#ffe5c2"/><path d="m209.675781 95.410156c-25.898437-7.503906-48.722656 1.726563-101.203125-9.871094-8.796875-1.941406-15.902344-1.113281-21.644531 1.597657 47.035156 9.09375 68.867187 1.152343 93.453125 8.273437 13.605469 3.941406 17.90625 23.191406 19.078125 40.226563 1.351563 19.605469-3.863281 39.113281-14.757813 55.46875-13.863281 20.804687-32.132812 37.328125-52.578124 42.855469 4.789062 1.292968 9.695312 2.007812 14.695312 2.007812 35.199219 0 65.886719-34.203125 82.085938-72.464844-.960938 1.785156 6.644531-60.625-19.128907-68.09375zm0 0" fill="#ffd0a4"/><path d="m389.113281 35.679688c-67.867187 0-122.882812 34.023437-122.882812 76 0 11.5625 4.179687 22.519531 11.648437 32.332031 6.804688 8.933593 5.699219 21.644531-2.238281 29.574219l-21.921875 21.894531 77.945312-16.609375c17.148438 5.621094 36.695313 8.808594 57.449219 8.808594 67.867188 0 122.886719-34.027344 122.886719-76 0-41.976563-55.015625-76-122.886719-76zm0 0" fill="#9de599"/><path d="m389.113281 35.679688c-6.667969 0-13.214843.332031-19.597656.964843 58.550781 5.804688 103.285156 37.183594 103.285156 75.035157 0 37.84375-44.734375 69.226562-103.28125 75.03125 6.378907.632812 12.925781.96875 19.59375.96875 67.867188 0 122.886719-34.027344 122.886719-76 0-41.976563-55.015625-76-122.886719-76zm0 0" fill="#74d4a2"/><g fill="#635562"><path d="m386.3125 139.324219c-4.269531 0-7.726562-3.457031-7.726562-7.722657v-2.628906c0-10.875 5.851562-20.628906 15.273437-25.453125 5.890625-3.011719 9.429687-9.242187 9.019531-15.863281-.507812-8.179688-7.3125-14.988281-15.492187-15.496094-4.652344-.289062-9.070313 1.300782-12.441407 4.46875-3.375 3.171875-5.234374 7.472656-5.234374 12.101563 0 4.265625-3.457032 7.726562-7.726563 7.726562-4.265625 0-7.726563-3.460937-7.726563-7.726562 0-8.808594 3.683594-17.324219 10.105469-23.359375 6.515625-6.125 15.023438-9.195313 23.980469-8.632813 16.082031 1 28.960938 13.878907 29.960938 29.960938.792968 12.761719-6.039063 24.765625-17.402344 30.578125-4.167969 2.132812-6.863282 6.722656-6.863282 11.695312v2.628906c-.003906 4.265626-3.460937 7.722657-7.726562 7.722657zm0 0"/><path d="m386.3125 166.175781c-4.269531 0-7.726562-3.460937-7.726562-7.726562v-.351563c0-4.269531 3.457031-7.726562 7.726562-7.726562 4.265625 0 7.722656 3.457031 7.722656 7.726562v.351563c0 4.269531-3.457031 7.726562-7.722656 7.726562zm0 0"/></g></svg>